<svg xmlns="http://www.w3.org/2000/svg" version="1.1" viewBox="0 0 100 100">
    <path
        d="m49.938 3.9023c25.41 0 46.035 20.629 46.035 46.035 0 25.41-20.629 46.035-46.035 46.035s-46.035-20.629-46.035-46.035 20.629-46.035 46.035-46.035zm0 9.3633c20.242 0 36.672 16.434 36.672 36.672 0 20.242-16.434 36.672-36.672 36.672s-36.672-16.434-36.672-36.672 16.434-36.672 36.672-36.672zm23.402 58.477c5.3281-5.7148 8.5898-13.383 8.5898-21.805 0-17.656-14.336-31.992-31.992-31.992s-31.992 14.336-31.992 31.992c0 8.4219 3.2617 16.09 8.5898 21.805 4.0625-8.7109 13.012-14.781 23.402-14.781s19.34 6.0703 23.402 14.781zm-43.152 3.3555c5.4414 4.2773 12.301 6.832 19.75 6.832 7.4531 0 14.312-2.5547 19.75-6.832-0.03125-0.0625-0.058594-0.125-0.085938-0.19141-3.0312-7.7617-10.703-13.266-19.668-13.266s-16.637 5.5039-19.668 13.266c-0.027344 0.066406-0.054687 0.12891-0.085937 0.19141zm19.75-50.91c8.1836 0 14.824 6.6445 14.824 14.824 0 8.1836-6.6445 14.824-14.824 14.824-8.1836 0-14.824-6.6445-14.824-14.824 0-8.1836 6.6445-14.824 14.824-14.824zm0 4.6836c-5.5977 0-10.145 4.5469-10.145 10.145s4.5469 10.145 10.145 10.145 10.145-4.5469 10.145-10.145-4.5469-10.145-10.145-10.145z"
        fill-rule="evenodd" fill="#e02424" />
</svg>