<svg xmlns="http://www.w3.org/2000/svg" xmlns:xlink="http://www.w3.org/1999/xlink" version="1.1"
    x="0px" y="0px" viewBox="0 0 27 27"
    xml:space="preserve">
    <g>
        <path fill="#065f46" d="M13,26c0.75,0,1.479-0.077,2.194-0.199C13.838,24.444,13,22.57,13,20.5c0-3.257,2.079-6.02,4.978-7.057   c0.1-0.237,0.19-0.503,0.261-0.795c0.268-1.085,0.197-2.038-0.161-2.127c-0.035-0.009-0.07-0.003-0.106,0.005   c0.081-0.877,0.056-1.707-0.193-2.067c-0.776-1.11-0.842-2.089-2.018-2.512C14.588,5.523,16,4,16,4s-5.024,0.141-6.095,1.945   C9.276,7,8.972,7.348,8.197,8.458c-0.25,0.361-0.257,1.193-0.15,2.069c-0.045-0.012-0.088-0.017-0.13-0.006   c-0.359,0.089-0.431,1.042-0.163,2.127c0.254,1.023,0.717,1.787,1.066,1.796c0.216,1.205,0.57,2.317,1.177,2.931   c1.5,1.518-1.5,3.036-1.5,3.036s-0.937,0.395-1.042,0.438c-0.66,0.285-1.552,0.683-2.416,1.105C2.568,19.755,1,16.561,1,13   C1,6.383,6.383,1,13,1c6.617,0,12,5.383,12,12c0,0.488-0.035,0.968-0.093,1.44c0.315,0.231,0.618,0.478,0.894,0.754   C25.923,14.479,26,13.75,26,13c0-7.18-5.82-13-13-13C5.82,0,0,5.82,0,13S5.82,26,13,26z"/>
        <path fill="#065f46" d="M20.5,14c-3.59,0-6.5,2.91-6.5,6.5s2.91,6.5,6.5,6.5c3.59,0,6.5-2.91,6.5-6.5S24.09,14,20.5,14z M24.59,20.898   l-0.732,0.682L21,18.505V24h-1v-5.493l-2.856,3.073l-0.733-0.682l4.09-4.398L24.59,20.898z"/>
    </g>
</svg>